# This file uses centimeters as units for non-parametric coordinates.

mtllib Saber Blade.mtl
g default
v -5.249999 -0.285317 -0.092705
v -5.249999 -0.242705 -0.176336
v -5.249999 -0.176336 -0.242705
v -5.249999 -0.092705 -0.285317
v -5.249999 0.000000 -0.300000
v -5.249999 0.092705 -0.285317
v -5.249999 0.176336 -0.242705
v -5.249999 0.242705 -0.176336
v -5.249999 0.285317 -0.092705
v -5.249999 0.300000 0.000000
v -5.249999 0.285317 0.092705
v -5.249999 0.242705 0.176336
v -5.249999 0.176336 0.242705
v -5.249999 0.092705 0.285317
v -5.249999 0.000000 0.300000
v -5.249999 -0.092705 0.285317
v -5.249999 -0.176336 0.242705
v -5.249999 -0.242705 0.176336
v -5.249999 -0.285317 0.092705
v -5.249999 -0.300000 0.000000
v -5.249999 0.000000 0.000000
v 14.750002 -0.000000 -0.000000
v 14.237746 -0.285317 -0.092705
v 14.396041 -0.271354 -0.088168
v 14.538841 -0.230832 -0.075002
v 14.652168 -0.167717 -0.054495
v 14.724928 -0.088188 -0.028654
v 14.237746 -0.242705 -0.176336
v 14.396041 -0.230828 -0.167706
v 14.538841 -0.196357 -0.142662
v 14.652168 -0.142669 -0.103655
v 14.724928 -0.075017 -0.054503
v 14.237746 -0.176336 -0.242705
v 14.396041 -0.167706 -0.230828
v 14.538841 -0.142662 -0.196357
v 14.652168 -0.103655 -0.142669
v 14.724928 -0.054503 -0.075017
v 14.237746 -0.092705 -0.285317
v 14.396041 -0.088168 -0.271354
v 14.538841 -0.075002 -0.230832
v 14.652168 -0.054495 -0.167717
v 14.724928 -0.028654 -0.088188
v 14.237746 -0.000000 -0.300000
v 14.396041 -0.000000 -0.285319
v 14.538841 -0.000000 -0.242711
v 14.652168 -0.000000 -0.176348
v 14.724928 -0.000000 -0.092727
v 14.237746 0.092705 -0.285317
v 14.396041 0.088168 -0.271354
v 14.538841 0.075002 -0.230832
v 14.652168 0.054495 -0.167717
v 14.724928 0.028654 -0.088188
v 14.237746 0.176336 -0.242705
v 14.396041 0.167706 -0.230828
v 14.538841 0.142662 -0.196357
v 14.652168 0.103655 -0.142669
v 14.724928 0.054503 -0.075017
v 14.237746 0.242705 -0.176336
v 14.396041 0.230828 -0.167706
v 14.538841 0.196357 -0.142662
v 14.652168 0.142669 -0.103655
v 14.724928 0.075017 -0.054503
v 14.237746 0.285317 -0.092705
v 14.396041 0.271354 -0.088168
v 14.538841 0.230832 -0.075002
v 14.652168 0.167717 -0.054495
v 14.724928 0.088188 -0.028654
v 14.237746 0.300000 0.000000
v 14.396041 0.285319 0.000000
v 14.538841 0.242711 0.000000
v 14.652168 0.176348 0.000000
v 14.724928 0.092726 0.000000
v 14.237746 0.285317 0.092705
v 14.396041 0.271354 0.088168
v 14.538841 0.230832 0.075002
v 14.652168 0.167717 0.054495
v 14.724928 0.088188 0.028654
v 14.237746 0.242705 0.176336
v 14.396041 0.230828 0.167706
v 14.538841 0.196357 0.142662
v 14.652168 0.142669 0.103655
v 14.724928 0.075017 0.054503
v 14.237746 0.176336 0.242705
v 14.396041 0.167706 0.230828
v 14.538841 0.142662 0.196357
v 14.652168 0.103655 0.142669
v 14.724928 0.054503 0.075017
v 14.237746 0.092705 0.285317
v 14.396041 0.088168 0.271354
v 14.538841 0.075002 0.230832
v 14.652168 0.054495 0.167717
v 14.724928 0.028654 0.088188
v 14.237746 0.000000 0.300000
v 14.396041 0.000000 0.285319
v 14.538841 0.000000 0.242711
v 14.652168 0.000000 0.176348
v 14.724928 0.000000 0.092726
v 14.237746 -0.092705 0.285317
v 14.396041 -0.088168 0.271354
v 14.538841 -0.075002 0.230832
v 14.652168 -0.054495 0.167717
v 14.724928 -0.028654 0.088188
v 14.237746 -0.176336 0.242705
v 14.396041 -0.167706 0.230828
v 14.538841 -0.142662 0.196357
v 14.652168 -0.103655 0.142669
v 14.724928 -0.054503 0.075017
v 14.237746 -0.242705 0.176336
v 14.396041 -0.230828 0.167706
v 14.538841 -0.196357 0.142662
v 14.652168 -0.142669 0.103655
v 14.724928 -0.075017 0.054503
v 14.237746 -0.285317 0.092705
v 14.396041 -0.271354 0.088168
v 14.538841 -0.230832 0.075002
v 14.652168 -0.167717 0.054495
v 14.724928 -0.088188 0.028654
v 14.237746 -0.300000 0.000000
v 14.396041 -0.285319 -0.000000
v 14.538841 -0.242711 -0.000000
v 14.652168 -0.176348 -0.000000
v 14.724928 -0.092726 -0.000000
vt 0.648603 0.107966
vt 0.626409 0.064408
vt 0.591842 0.029841
vt 0.548284 0.007647
vt 0.500000 -0.000000
vt 0.451716 0.007647
vt 0.408159 0.029841
vt 0.373591 0.064409
vt 0.351397 0.107966
vt 0.343750 0.156250
vt 0.351397 0.204534
vt 0.373591 0.248091
vt 0.408159 0.282659
vt 0.451716 0.304853
vt 0.500000 0.312500
vt 0.548284 0.304853
vt 0.591841 0.282659
vt 0.626409 0.248091
vt 0.648603 0.204534
vt 0.656250 0.156250
vt 0.500000 0.150000
vt 0.375000 0.312500
vt 0.387500 0.312500
vt 0.375000 0.678811
vt 0.400000 0.312500
vt 0.387500 0.678811
vt 0.412500 0.312500
vt 0.400000 0.678811
vt 0.425000 0.312500
vt 0.412500 0.678811
vt 0.437500 0.312500
vt 0.425000 0.678811
vt 0.450000 0.312500
vt 0.437500 0.678811
vt 0.462500 0.312500
vt 0.450000 0.678811
vt 0.475000 0.312500
vt 0.462500 0.678811
vt 0.487500 0.312500
vt 0.475000 0.678811
vt 0.500000 0.312500
vt 0.487500 0.678811
vt 0.512500 0.312500
vt 0.500000 0.678811
vt 0.525000 0.312500
vt 0.512500 0.678811
vt 0.537500 0.312500
vt 0.525000 0.678811
vt 0.550000 0.312500
vt 0.537500 0.678811
vt 0.562500 0.312500
vt 0.550000 0.678811
vt 0.575000 0.312500
vt 0.562500 0.678811
vt 0.587500 0.312500
vt 0.575000 0.678811
vt 0.600000 0.312500
vt 0.587500 0.678811
vt 0.612500 0.312500
vt 0.600000 0.678811
vt 0.625000 0.312500
vt 0.612500 0.678811
vt 0.500000 0.837501
vt 0.625000 0.678811
vt 0.375000 0.680002
vt 0.625000 0.680002
vt 0.375000 0.683309
vt 0.625000 0.683309
vt 0.375000 0.688440
vt 0.648603 0.892034
vt 0.625000 0.688440
vt 0.578119 0.867650
vt 0.387500 0.679803
vt 0.387500 0.682822
vt 0.387500 0.688440
vt 0.626409 0.935591
vt 0.566452 0.890547
vt 0.400000 0.679773
vt 0.400000 0.682725
vt 0.400000 0.688440
vt 0.591841 0.970159
vt 0.548280 0.908719
vt 0.412500 0.679767
vt 0.412500 0.682706
vt 0.412500 0.688440
vt 0.548284 0.992353
vt 0.525382 0.920386
vt 0.425000 0.679766
vt 0.425000 0.682702
vt 0.425000 0.688440
vt 0.500000 1.000000
vt 0.500000 0.924406
vt 0.437500 0.679766
vt 0.437500 0.682702
vt 0.437500 0.688440
vt 0.451716 0.992353
vt 0.474618 0.920386
vt 0.450000 0.679766
vt 0.450000 0.682701
vt 0.450000 0.688440
vt 0.408159 0.970159
vt 0.451720 0.908719
vt 0.462500 0.679766
vt 0.462500 0.682701
vt 0.462500 0.688440
vt 0.373591 0.935591
vt 0.433548 0.890547
vt 0.475000 0.679766
vt 0.475000 0.682701
vt 0.475000 0.688440
vt 0.351397 0.892034
vt 0.421881 0.867650
vt 0.487500 0.679766
vt 0.487500 0.682701
vt 0.487500 0.688440
vt 0.343750 0.843750
vt 0.417861 0.842267
vt 0.500000 0.679766
vt 0.500000 0.682701
vt 0.500000 0.688440
vt 0.351397 0.795466
vt 0.421881 0.816885
vt 0.512500 0.679766
vt 0.512500 0.682701
vt 0.512500 0.688440
vt 0.373591 0.751909
vt 0.433548 0.793987
vt 0.525000 0.679766
vt 0.525000 0.682701
vt 0.525000 0.688440
vt 0.408159 0.717341
vt 0.451720 0.775815
vt 0.537500 0.679766
vt 0.537500 0.682701
vt 0.537500 0.688440
vt 0.451716 0.695147
vt 0.474618 0.764148
vt 0.550000 0.679766
vt 0.550000 0.682701
vt 0.550000 0.688440
vt 0.500000 0.687500
vt 0.500000 0.760128
vt 0.562500 0.679766
vt 0.562500 0.682702
vt 0.562500 0.688440
vt 0.548284 0.695147
vt 0.525382 0.764148
vt 0.575000 0.679766
vt 0.575000 0.682702
vt 0.575000 0.688440
vt 0.591842 0.717341
vt 0.548280 0.775815
vt 0.587500 0.679767
vt 0.587500 0.682706
vt 0.587500 0.688440
vt 0.626409 0.751908
vt 0.566452 0.793987
vt 0.600000 0.679773
vt 0.600000 0.682725
vt 0.600000 0.688440
vt 0.648603 0.795466
vt 0.578119 0.816885
vt 0.612500 0.679803
vt 0.612500 0.682822
vt 0.656250 0.843750
vt 0.612500 0.688440
vt 0.582139 0.842267
vn -1.000000 0.000000 0.000006
vn -1.000000 0.000000 0.000000
vn -1.000000 0.000000 -0.000000
vn -1.000000 0.000000 0.000006
vn -1.000000 0.000000 0.000000
vn -1.000000 0.000000 0.000000
vn -1.000000 0.000000 0.000000
vn -1.000000 0.000000 0.000006
vn -1.000000 0.000000 0.000006
vn -1.000000 0.000000 0.000000
vn -1.000000 0.000000 0.000000
vn -1.000000 0.000000 0.000000
vn -1.000000 0.000000 -0.000006
vn -1.000000 0.000000 -0.000006
vn -1.000000 0.000000 -0.000000
vn -1.000000 0.000000 -0.000000
vn -1.000000 0.000000 0.000000
vn -1.000000 0.000000 -0.000006
vn -1.000000 0.000000 -0.000006
vn -1.000000 0.000000 0.000000
vn -1.000000 0.000000 0.000000
vn -0.000000 -0.951057 -0.309016
vn -0.000000 -0.809017 -0.587785
vn 0.000660 -0.809017 -0.587785
vn 0.000660 -0.951057 -0.309016
vn -0.000000 -0.587785 -0.809017
vn 0.000660 -0.587785 -0.809017
vn -0.000000 -0.309017 -0.951057
vn 0.000660 -0.309017 -0.951056
vn 0.000000 0.000000 -1.000000
vn 0.000660 -0.000000 -1.000000
vn 0.000000 0.309017 -0.951057
vn 0.000660 0.309017 -0.951056
vn 0.000000 0.587786 -0.809017
vn 0.000660 0.587785 -0.809017
vn 0.000000 0.809017 -0.587785
vn 0.000660 0.809017 -0.587785
vn 0.000000 0.951057 -0.309017
vn 0.000660 0.951056 -0.309017
vn 0.000000 1.000000 0.000000
vn 0.000660 1.000000 0.000000
vn 0.000000 0.951057 0.309017
vn 0.000660 0.951056 0.309017
vn 0.000000 0.809017 0.587785
vn 0.000660 0.809017 0.587785
vn 0.000000 0.587785 0.809017
vn 0.000660 0.587785 0.809017
vn 0.000000 0.309017 0.951057
vn 0.000660 0.309017 0.951056
vn -0.000000 -0.000000 1.000000
vn 0.000660 -0.000000 1.000000
vn -0.000000 -0.309017 0.951057
vn 0.000660 -0.309017 0.951056
vn -0.000000 -0.587785 0.809017
vn 0.000660 -0.587785 0.809017
vn -0.000000 -0.809017 0.587785
vn 0.000660 -0.809017 0.587785
vn -0.000000 -0.951057 0.309017
vn 0.000660 -0.951056 0.309017
vn -0.000000 -1.000000 0.000001
vn 0.000660 -1.000000 0.000001
vn 0.808738 -0.559383 -0.181753
vn 1.000000 0.000000 0.000001
vn 0.808738 -0.588170 -0.000001
vn 0.588439 -0.768969 -0.249853
vn 0.588439 -0.808542 -0.000001
vn 0.368251 -0.884223 -0.287301
vn 0.368251 -0.929727 0.000001
vn 0.172557 -0.936791 -0.304381
vn 0.172557 -0.985000 0.000001
vn 0.808736 -0.475838 -0.345722
vn 0.588438 -0.654123 -0.475250
vn 0.368251 -0.752164 -0.546480
vn 0.172557 -0.796881 -0.578968
vn 0.808736 -0.345717 -0.475843
vn 0.588439 -0.475249 -0.654124
vn 0.368250 -0.546479 -0.752165
vn 0.172557 -0.578968 -0.796882
vn 0.808739 -0.181755 -0.559380
vn 0.588439 -0.249853 -0.768969
vn 0.368250 -0.287301 -0.884223
vn 0.172557 -0.304381 -0.936790
vn 0.808737 -0.000000 -0.588170
vn 0.588439 -0.000000 -0.808542
vn 0.368251 -0.000000 -0.929726
vn 0.172557 -0.000000 -0.985000
vn 0.808737 0.181754 -0.559384
vn 0.588439 0.249853 -0.768968
vn 0.368251 0.287302 -0.884222
vn 0.172557 0.304382 -0.936790
vn 0.808736 0.345717 -0.475842
vn 0.588438 0.475249 -0.654124
vn 0.368251 0.546480 -0.752164
vn 0.172557 0.578969 -0.796880
vn 0.808739 0.475840 -0.345713
vn 0.588439 0.654124 -0.475249
vn 0.368251 0.752164 -0.546480
vn 0.172557 0.796882 -0.578968
vn 0.808738 0.559383 -0.181748
vn 0.588439 0.768969 -0.249851
vn 0.368250 0.884222 -0.287303
vn 0.172557 0.936790 -0.304381
vn 0.808738 0.588170 0.000004
vn 0.588439 0.808542 -0.000000
vn 0.368251 0.929727 -0.000002
vn 0.172557 0.985000 -0.000000
vn 0.808737 0.559382 0.181756
vn 0.588439 0.768969 0.249853
vn 0.368251 0.884222 0.287302
vn 0.172557 0.936791 0.304381
vn 0.808738 0.475839 0.345716
vn 0.588439 0.654123 0.475250
vn 0.368251 0.752164 0.546480
vn 0.172557 0.796881 0.578969
vn 0.808737 0.345717 0.475840
vn 0.588438 0.475249 0.654125
vn 0.368250 0.546479 0.752165
vn 0.172557 0.578968 0.796882
vn 0.808739 0.181755 0.559381
vn 0.588438 0.249853 0.768969
vn 0.368250 0.287301 0.884223
vn 0.172557 0.304381 0.936790
vn 0.808738 -0.000000 0.588170
vn 0.588439 0.000000 0.808542
vn 0.368251 -0.000000 0.929726
vn 0.172557 -0.000000 0.984999
vn 0.808737 -0.181754 0.559384
vn 0.588439 -0.249853 0.768969
vn 0.368251 -0.287301 0.884222
vn 0.172557 -0.304382 0.936790
vn 0.808736 -0.345717 0.475843
vn 0.588437 -0.475248 0.654126
vn 0.368250 -0.546479 0.752165
vn 0.172557 -0.578968 0.796881
vn 0.808738 -0.475840 0.345715
vn 0.588438 -0.654124 0.475250
vn 0.368250 -0.752164 0.546481
vn 0.172557 -0.796882 0.578968
vn 0.808738 -0.559383 0.181748
vn 0.588439 -0.768970 0.249849
vn 0.368251 -0.884222 0.287302
vn 0.172557 -0.936790 0.304382
s 1
g pCylinder1
usemtl blinn1SG
f 2/2/1 1/1/2 21/21/3
f 3/3/4 2/2/1 21/21/3
f 4/4/5 3/3/4 21/21/3
f 5/5/6 4/4/5 21/21/3
f 6/6/7 5/5/6 21/21/3
f 7/7/8 6/6/7 21/21/3
f 8/8/9 7/7/8 21/21/3
f 9/9/10 8/8/9 21/21/3
f 10/10/11 9/9/10 21/21/3
f 11/11/12 10/10/11 21/21/3
f 12/12/13 11/11/12 21/21/3
f 13/13/14 12/12/13 21/21/3
f 14/14/15 13/13/14 21/21/3
f 15/15/16 14/14/15 21/21/3
f 16/16/17 15/15/16 21/21/3
f 17/17/18 16/16/17 21/21/3
f 18/18/19 17/17/18 21/21/3
f 19/19/20 18/18/19 21/21/3
f 20/20/21 19/19/20 21/21/3
f 1/1/2 20/20/21 21/21/3
s 2
f 1/22/22 2/23/23 28/26/24 23/24/25
f 2/23/23 3/25/26 33/28/27 28/26/24
f 3/25/26 4/27/28 38/30/29 33/28/27
f 4/27/28 5/29/30 43/32/31 38/30/29
f 5/29/30 6/31/32 48/34/33 43/32/31
f 6/31/32 7/33/34 53/36/35 48/34/33
f 7/33/34 8/35/36 58/38/37 53/36/35
f 8/35/36 9/37/38 63/40/39 58/38/37
f 9/37/38 10/39/40 68/42/41 63/40/39
f 10/39/40 11/41/42 73/44/43 68/42/41
f 11/41/42 12/43/44 78/46/45 73/44/43
f 12/43/44 13/45/46 83/48/47 78/46/45
f 13/45/46 14/47/48 88/50/49 83/48/47
f 14/47/48 15/49/50 93/52/51 88/50/49
f 15/49/50 16/51/52 98/54/53 93/52/51
f 16/51/52 17/53/54 103/56/55 98/54/53
f 17/53/54 18/55/56 108/58/57 103/56/55
f 18/55/56 19/57/58 113/60/59 108/58/57
f 19/57/58 20/59/60 118/62/61 113/60/59
f 20/59/60 1/61/22 23/64/25 118/62/61
f 27/72/62 22/63/63 122/167/64
f 26/70/65 27/72/62 122/167/64 121/165/66
f 25/68/67 26/71/65 121/166/66 120/164/68
f 23/64/25 24/66/69 119/163/70 118/62/61
f 24/66/69 25/68/67 120/164/68 119/163/70
f 22/63/63 27/72/62 32/77/71
f 27/72/62 26/70/65 31/76/72 32/77/71
f 26/69/65 25/67/67 30/74/73 31/75/72
f 25/67/67 24/65/69 29/73/74 30/74/73
f 24/65/69 23/24/25 28/26/24 29/73/74
f 22/63/63 32/77/71 37/82/75
f 32/77/71 31/76/72 36/81/76 37/82/75
f 31/75/72 30/74/73 35/79/77 36/80/76
f 30/74/73 29/73/74 34/78/78 35/79/77
f 29/73/74 28/26/24 33/28/27 34/78/78
f 22/63/63 37/82/75 42/87/79
f 37/82/75 36/81/76 41/86/80 42/87/79
f 36/80/76 35/79/77 40/84/81 41/85/80
f 35/79/77 34/78/78 39/83/82 40/84/81
f 34/78/78 33/28/27 38/30/29 39/83/82
f 22/63/63 42/87/79 47/92/83
f 42/87/79 41/86/80 46/91/84 47/92/83
f 41/85/80 40/84/81 45/89/85 46/90/84
f 40/84/81 39/83/82 44/88/86 45/89/85
f 39/83/82 38/30/29 43/32/31 44/88/86
f 22/63/63 47/92/83 52/97/87
f 47/92/83 46/91/84 51/96/88 52/97/87
f 46/90/84 45/89/85 50/94/89 51/95/88
f 45/89/85 44/88/86 49/93/90 50/94/89
f 44/88/86 43/32/31 48/34/33 49/93/90
f 22/63/63 52/97/87 57/102/91
f 52/97/87 51/96/88 56/101/92 57/102/91
f 51/95/88 50/94/89 55/99/93 56/100/92
f 50/94/89 49/93/90 54/98/94 55/99/93
f 49/93/90 48/34/33 53/36/35 54/98/94
f 22/63/63 57/102/91 62/107/95
f 57/102/91 56/101/92 61/106/96 62/107/95
f 56/100/92 55/99/93 60/104/97 61/105/96
f 55/99/93 54/98/94 59/103/98 60/104/97
f 54/98/94 53/36/35 58/38/37 59/103/98
f 22/63/63 62/107/95 67/112/99
f 62/107/95 61/106/96 66/111/100 67/112/99
f 61/105/96 60/104/97 65/109/101 66/110/100
f 60/104/97 59/103/98 64/108/102 65/109/101
f 59/103/98 58/38/37 63/40/39 64/108/102
f 22/63/63 67/112/99 72/117/103
f 67/112/99 66/111/100 71/116/104 72/117/103
f 66/110/100 65/109/101 70/114/105 71/115/104
f 65/109/101 64/108/102 69/113/106 70/114/105
f 64/108/102 63/40/39 68/42/41 69/113/106
f 22/63/63 72/117/103 77/122/107
f 72/117/103 71/116/104 76/121/108 77/122/107
f 71/115/104 70/114/105 75/119/109 76/120/108
f 70/114/105 69/113/106 74/118/110 75/119/109
f 69/113/106 68/42/41 73/44/43 74/118/110
f 22/63/63 77/122/107 82/127/111
f 77/122/107 76/121/108 81/126/112 82/127/111
f 76/120/108 75/119/109 80/124/113 81/125/112
f 75/119/109 74/118/110 79/123/114 80/124/113
f 74/118/110 73/44/43 78/46/45 79/123/114
f 22/63/63 82/127/111 87/132/115
f 82/127/111 81/126/112 86/131/116 87/132/115
f 81/125/112 80/124/113 85/129/117 86/130/116
f 80/124/113 79/123/114 84/128/118 85/129/117
f 79/123/114 78/46/45 83/48/47 84/128/118
f 22/63/63 87/132/115 92/137/119
f 87/132/115 86/131/116 91/136/120 92/137/119
f 86/130/116 85/129/117 90/134/121 91/135/120
f 85/129/117 84/128/118 89/133/122 90/134/121
f 84/128/118 83/48/47 88/50/49 89/133/122
f 22/63/63 92/137/119 97/142/123
f 92/137/119 91/136/120 96/141/124 97/142/123
f 91/135/120 90/134/121 95/139/125 96/140/124
f 90/134/121 89/133/122 94/138/126 95/139/125
f 89/133/122 88/50/49 93/52/51 94/138/126
f 22/63/63 97/142/123 102/147/127
f 97/142/123 96/141/124 101/146/128 102/147/127
f 96/140/124 95/139/125 100/144/129 101/145/128
f 95/139/125 94/138/126 99/143/130 100/144/129
f 94/138/126 93/52/51 98/54/53 99/143/130
f 22/63/63 102/147/127 107/152/131
f 102/147/127 101/146/128 106/151/132 107/152/131
f 101/145/128 100/144/129 105/149/133 106/150/132
f 100/144/129 99/143/130 104/148/134 105/149/133
f 99/143/130 98/54/53 103/56/55 104/148/134
f 22/63/63 107/152/131 112/157/135
f 107/152/131 106/151/132 111/156/136 112/157/135
f 106/150/132 105/149/133 110/154/137 111/155/136
f 105/149/133 104/148/134 109/153/138 110/154/137
f 104/148/134 103/56/55 108/58/57 109/153/138
f 22/63/63 112/157/135 117/162/139
f 112/157/135 111/156/136 116/161/140 117/162/139
f 111/155/136 110/154/137 115/159/141 116/160/140
f 110/154/137 109/153/138 114/158/142 115/159/141
f 109/153/138 108/58/57 113/60/59 114/158/142
f 22/63/63 117/162/139 122/167/64
f 117/162/139 116/161/140 121/165/66 122/167/64
f 116/160/140 115/159/141 120/164/68 121/166/66
f 115/159/141 114/158/142 119/163/70 120/164/68
f 114/158/142 113/60/59 118/62/61 119/163/70
