# This file uses centimeters as units for non-parametric coordinates.

mtllib Scythe.mtl
g default
v -7.500000 -0.125000 -8.093933
v 4.099999 -0.125000 -9.013933
v -7.500000 0.125000 -8.093935
v 4.099999 0.125000 -9.013933
v -7.500000 0.125000 -8.093936
v 4.099999 0.125000 -10.013933
v -7.500000 -0.125000 -8.093934
v 4.099999 -0.125000 -10.013933
v -3.750000 0.125000 -9.333934
v -3.750000 -0.125000 -9.333934
v -3.750003 -0.125000 -8.673937
v -3.750003 0.125000 -8.673938
v -5.625000 0.125000 -9.138935
v -5.625000 -0.125000 -9.138934
v -5.625001 -0.125000 -8.723935
v -5.625001 0.125000 -8.723936
v -1.875000 0.125000 -10.158934
v -1.875000 -0.125000 -10.158934
v -1.875002 -0.125000 -9.273935
v -1.875002 0.125000 -9.273935
v -7.500000 0.000000 -8.093935
v -7.500000 0.000000 -8.093934
v -5.625001 0.000000 -8.723936
v -3.750003 0.000000 -8.673938
v -1.875002 0.000000 -9.273935
v 4.099999 0.000000 -9.013933
v 4.099999 0.000000 -10.013933
v -1.875000 0.000000 -10.158934
v -3.750000 0.000000 -9.333934
v -5.625000 0.000000 -9.138934
v 1.112499 0.125000 -11.066434
v 1.112499 0.000000 -11.066434
v 1.112499 -0.125000 -11.066434
v 1.112498 -0.125000 -10.123935
v 1.112498 0.000000 -10.123935
v 1.112498 0.125000 -10.123935
v 2.606249 0.125000 -10.310184
v 2.606249 0.000000 -10.310184
v 2.606249 -0.125000 -10.310184
v 2.606249 -0.125000 -9.338935
v 2.606249 0.000000 -9.338935
v 2.606249 0.125000 -9.338936
v 3.353124 0.000000 -10.747058
v 3.353124 0.125000 -10.747058
v 3.353124 0.125000 -9.761434
v 3.353124 0.000000 -9.761434
v 3.353124 -0.125000 -9.761434
v 3.353124 -0.125000 -10.747058
v 3.726561 0.125000 -9.830496
v 3.726561 0.000000 -9.830496
v 3.726561 -0.125000 -9.830496
v 3.726561 -0.125000 -8.837684
v 3.726561 0.000000 -8.837684
v 3.726561 0.125000 -8.837684
v 0.475529 -0.154509 10.000000
v 0.404509 -0.293893 10.000000
v 0.293893 -0.404509 10.000000
v 0.154509 -0.475529 10.000000
v 0.000000 -0.500000 10.000000
v -0.154509 -0.475528 10.000000
v -0.293893 -0.404509 10.000000
v -0.404509 -0.293893 10.000000
v -0.475528 -0.154509 10.000000
v -0.500000 0.000000 10.000000
v -0.475528 0.154509 10.000000
v -0.404509 0.293893 10.000000
v -0.293893 0.404509 10.000000
v -0.154509 0.475528 10.000000
v -0.000000 0.500000 10.000000
v 0.154508 0.475528 10.000000
v 0.293893 0.404509 10.000000
v 0.404509 0.293893 10.000000
v 0.475528 0.154509 10.000000
v 0.500000 0.000000 10.000000
v 0.475529 -0.154509 -10.829997
v 0.404509 -0.293893 -10.829997
v 0.293893 -0.404509 -10.829997
v 0.154509 -0.475529 -10.829997
v 0.000000 -0.500000 -10.829997
v -0.154509 -0.475528 -10.829997
v -0.293893 -0.404509 -10.829997
v -0.404509 -0.293893 -10.829997
v -0.475528 -0.154509 -10.829997
v -0.500000 -0.000000 -10.829997
v -0.475528 0.154509 -10.829997
v -0.404509 0.293893 -10.829997
v -0.293893 0.404509 -10.829997
v -0.154509 0.475528 -10.829997
v -0.000000 0.500000 -10.829997
v 0.154508 0.475528 -10.829997
v 0.293893 0.404509 -10.829997
v 0.404509 0.293893 -10.829997
v 0.475528 0.154509 -10.829997
v 0.500000 -0.000000 -10.829997
v 0.000000 0.000000 10.000000
v 0.000000 -0.000000 -10.829997
vt 0.375000 0.000000
vt 0.625000 0.000000
vt 0.375000 0.250000
vt 0.625000 0.250000
vt 0.375000 0.500000
vt 0.625000 0.500000
vt 0.375000 0.750000
vt 0.625000 0.750000
vt 0.375000 1.000000
vt 0.625000 1.000000
vt 0.875000 0.000000
vt 0.875000 0.250000
vt 0.125000 0.000000
vt 0.125000 0.250000
vt 0.500000 0.500000
vt 0.500000 0.750000
vt 0.500000 0.000000
vt 0.500000 1.000000
vt 0.500000 0.250000
vt 0.437500 0.500000
vt 0.437500 0.750000
vt 0.437500 0.000000
vt 0.437500 1.000000
vt 0.437500 0.250000
vt 0.562500 0.500000
vt 0.562500 0.750000
vt 0.562500 0.000000
vt 0.562500 1.000000
vt 0.562500 0.250000
vt 0.125000 0.125000
vt 0.375000 0.625000
vt 0.375000 0.125000
vt 0.437500 0.125000
vt 0.500000 0.125000
vt 0.562500 0.125000
vt 0.625000 0.125000
vt 0.625000 0.625000
vt 0.875000 0.125000
vt 0.562500 0.625000
vt 0.500000 0.625000
vt 0.437500 0.625000
vt 0.593750 0.500000
vt 0.593750 0.625000
vt 0.593750 0.750000
vt 0.593750 0.000000
vt 0.593750 1.000000
vt 0.593750 0.125000
vt 0.593750 0.250000
vt 0.609375 0.500000
vt 0.609375 0.625000
vt 0.609375 0.750000
vt 0.609375 0.000000
vt 0.609375 1.000000
vt 0.609375 0.125000
vt 0.609375 0.250000
vt 0.617188 0.625000
vt 0.617188 0.500000
vt 0.617188 0.250000
vt 0.617188 0.125000
vt 0.617188 0.000000
vt 0.617188 1.000000
vt 0.617188 0.750000
vt 0.621094 0.500000
vt 0.621094 0.625000
vt 0.621094 0.750000
vt 0.621094 0.000000
vt 0.621094 1.000000
vt 0.621094 0.125000
vt 0.621094 0.250000
vt 0.375000 0.312500
vt 0.387500 0.312500
vt 0.387500 0.688440
vt 0.375000 0.688440
vt 0.400000 0.312500
vt 0.400000 0.688440
vt 0.412500 0.312500
vt 0.412500 0.688440
vt 0.425000 0.312500
vt 0.425000 0.688440
vt 0.437500 0.312500
vt 0.437500 0.688440
vt 0.450000 0.312500
vt 0.450000 0.688440
vt 0.462500 0.312500
vt 0.462500 0.688440
vt 0.475000 0.312500
vt 0.475000 0.688440
vt 0.487500 0.312500
vt 0.487500 0.688440
vt 0.500000 0.312500
vt 0.500000 0.688440
vt 0.512500 0.312500
vt 0.512500 0.688440
vt 0.525000 0.312500
vt 0.525000 0.688440
vt 0.537500 0.312500
vt 0.537500 0.688440
vt 0.550000 0.312500
vt 0.550000 0.688440
vt 0.562500 0.312500
vt 0.562500 0.688440
vt 0.575000 0.312500
vt 0.575000 0.688440
vt 0.587500 0.312500
vt 0.587500 0.688440
vt 0.600000 0.312500
vt 0.600000 0.688440
vt 0.612500 0.312500
vt 0.612500 0.688440
vt 0.625000 0.312500
vt 0.625000 0.688440
vt 0.626409 0.064408
vt 0.648603 0.107966
vt 0.500000 0.150000
vt 0.591842 0.029841
vt 0.548284 0.007647
vt 0.500000 -0.000000
vt 0.451716 0.007647
vt 0.408159 0.029841
vt 0.373591 0.064409
vt 0.351397 0.107966
vt 0.343750 0.156250
vt 0.351397 0.204534
vt 0.373591 0.248091
vt 0.408159 0.282659
vt 0.451716 0.304853
vt 0.500000 0.312500
vt 0.548284 0.304853
vt 0.591841 0.282659
vt 0.626409 0.248091
vt 0.648603 0.204534
vt 0.656250 0.156250
vt 0.648603 0.892034
vt 0.626409 0.935591
vt 0.500000 0.837500
vt 0.591841 0.970159
vt 0.548284 0.992353
vt 0.500000 1.000000
vt 0.451716 0.992353
vt 0.408159 0.970159
vt 0.373591 0.935591
vt 0.351397 0.892034
vt 0.343750 0.843750
vt 0.351397 0.795466
vt 0.373591 0.751909
vt 0.408159 0.717341
vt 0.451716 0.695147
vt 0.500000 0.687500
vt 0.548284 0.695147
vt 0.591842 0.717341
vt 0.626409 0.751908
vt 0.648603 0.795466
vt 0.656250 0.843750
vn 0.318503 0.000006 0.947922
vn 0.152850 0.000005 0.988249
vn 0.152850 0.000002 0.988249
vn 0.318503 0.000004 0.947922
vn -0.000000 1.000000 -0.000000
vn -0.000000 1.000000 -0.000000
vn -0.000000 1.000000 -0.000000
vn -0.000000 1.000000 -0.000000
vn -0.486829 -0.000007 -0.873497
vn -0.313948 -0.000006 -0.949440
vn -0.313948 -0.000004 -0.949440
vn -0.486829 -0.000005 -0.873497
vn 0.000000 -1.000000 0.000000
vn 0.000000 -1.000000 0.000000
vn 0.000000 -1.000000 0.000000
vn 0.000000 -1.000000 0.000000
vn 1.000000 0.000000 0.000000
vn 1.000000 0.000000 0.000000
vn 1.000000 0.000000 0.000000
vn 1.000000 0.000000 0.000000
vn 0.000000 0.000008 1.000000
vn 0.000000 0.000008 1.000000
vn 0.000000 0.000008 1.000000
vn 0.000000 0.000008 1.000000
vn -0.262464 -0.000002 -0.964942
vn -0.335631 0.000000 -0.941994
vn -0.335631 0.000000 -0.941994
vn -0.262464 -0.000001 -0.964942
vn 0.000000 -1.000000 0.000000
vn 0.000000 -1.000000 0.000000
vn 0.000000 -1.000000 0.000000
vn 0.000000 -1.000000 0.000000
vn 0.145114 0.000000 0.989415
vn 0.145114 0.000003 0.989415
vn 0.285765 0.000001 0.958300
vn 0.285765 0.000000 0.958300
vn -0.000000 1.000000 -0.000000
vn -0.000000 1.000000 -0.000000
vn -0.000000 1.000000 -0.000000
vn -0.000000 1.000000 -0.000000
vn -0.033733 0.000000 -0.999431
vn -0.033733 0.000000 -0.999431
vn 0.000000 -1.000000 0.000000
vn -0.000000 -1.000000 0.000000
vn 0.014503 0.000001 0.999895
vn 0.014504 0.000001 0.999895
vn 0.000000 1.000000 0.000000
vn 0.000000 1.000000 0.000000
vn -0.970143 0.000002 0.242536
vn -0.970143 0.000002 0.242536
vn -0.970143 0.000002 0.242536
vn -0.970143 0.000002 0.242536
vn 0.318503 0.000008 0.947922
vn 0.152850 0.000008 0.988249
vn 0.145114 0.000006 0.989415
vn 0.285765 0.000001 0.958300
vn 0.014503 0.000000 0.999895
vn 1.000000 0.000000 0.000000
vn 1.000000 0.000000 0.000000
vn -0.033733 0.000000 -0.999431
vn -0.335631 0.000000 -0.941994
vn -0.262464 0.000000 -0.964942
vn -0.313948 -0.000002 -0.949440
vn -0.486829 -0.000004 -0.873497
vn 0.141113 0.000000 -0.989994
vn 0.141113 0.000000 -0.989994
vn 0.141113 0.000000 -0.989994
vn -0.000000 -1.000000 0.000000
vn -0.000000 -1.000000 0.000000
vn -0.159709 0.000002 0.987164
vn -0.159709 0.000000 0.987164
vn -0.159709 0.000004 0.987164
vn 0.000000 1.000000 0.000000
vn 0.000000 1.000000 0.000000
vn 0.393611 0.000000 -0.919277
vn 0.700507 0.000000 -0.713646
vn 0.700507 0.000000 -0.713646
vn 0.393611 0.000000 -0.919277
vn 0.393611 0.000000 -0.919277
vn 0.700507 0.000000 -0.713646
vn 0.000000 -1.000000 0.000000
vn 0.000000 -1.000000 0.000000
vn 0.000000 -1.000000 0.000000
vn 0.000000 -1.000000 0.000000
vn -0.707403 0.000000 0.706811
vn -0.408406 0.000001 0.912800
vn -0.408406 0.000000 0.912800
vn -0.707403 0.000000 0.706811
vn -0.408407 0.000002 0.912800
vn -0.707403 0.000000 0.706811
vn 0.000000 1.000000 0.000000
vn 0.000000 1.000000 0.000000
vn 0.000000 1.000000 0.000000
vn 0.000000 1.000000 0.000000
vn -0.440893 0.000000 -0.897560
vn -0.440893 0.000000 -0.897560
vn -0.440893 0.000000 -0.897560
vn 0.000000 -1.000000 0.000000
vn 0.000000 -1.000000 0.000000
vn 0.426816 0.000000 0.904339
vn 0.426816 0.000000 0.904339
vn 0.426816 0.000000 0.904339
vn 0.000000 1.000000 0.000000
vn 0.000000 1.000000 0.000000
vn 0.951057 -0.309016 0.000000
vn 0.809017 -0.587785 0.000000
vn 0.809017 -0.587785 0.000000
vn 0.951057 -0.309016 0.000000
vn 0.587785 -0.809017 0.000000
vn 0.587785 -0.809017 0.000000
vn 0.309017 -0.951057 0.000000
vn 0.309017 -0.951057 0.000000
vn -0.000000 -1.000000 0.000000
vn -0.000000 -1.000000 0.000000
vn -0.309017 -0.951056 0.000000
vn -0.309017 -0.951056 0.000000
vn -0.587785 -0.809017 0.000000
vn -0.587785 -0.809017 0.000000
vn -0.809017 -0.587785 0.000000
vn -0.809017 -0.587785 0.000000
vn -0.951057 -0.309017 0.000000
vn -0.951057 -0.309017 0.000000
vn -1.000000 0.000000 0.000000
vn -1.000000 0.000000 0.000000
vn -0.951057 0.309017 0.000000
vn -0.951057 0.309017 0.000000
vn -0.809017 0.587785 0.000000
vn -0.809017 0.587785 0.000000
vn -0.587785 0.809017 0.000000
vn -0.587785 0.809017 0.000000
vn -0.309017 0.951057 0.000000
vn -0.309017 0.951057 0.000000
vn 0.000000 1.000000 0.000000
vn 0.000000 1.000000 0.000000
vn 0.309017 0.951057 0.000000
vn 0.309017 0.951057 0.000000
vn 0.587785 0.809017 0.000000
vn 0.587785 0.809017 0.000000
vn 0.809017 0.587785 0.000000
vn 0.809017 0.587785 0.000000
vn 0.951057 0.309017 0.000000
vn 0.951057 0.309017 0.000000
vn 1.000000 0.000001 0.000000
vn 1.000000 0.000001 0.000000
vn -0.000006 0.000000 1.000000
vn 0.000000 0.000000 1.000000
vn -0.000001 0.000000 1.000000
vn -0.000006 0.000000 1.000000
vn 0.000000 0.000000 1.000000
vn 0.000000 0.000000 1.000000
vn 0.000000 0.000000 1.000000
vn 0.000003 0.000000 1.000000
vn 0.000002 0.000000 1.000000
vn -0.000002 0.000000 1.000000
vn 0.000000 0.000000 1.000000
vn 0.000000 0.000000 1.000000
vn 0.000000 0.000000 1.000000
vn 0.000000 0.000000 1.000000
vn 0.000000 0.000000 1.000000
vn 0.000000 0.000000 1.000000
vn -0.000006 0.000000 1.000000
vn -0.000003 0.000000 1.000000
vn 0.000003 0.000000 1.000000
vn 0.000000 0.000000 1.000000
vn 0.000000 0.000000 1.000000
vn 0.000002 0.000000 -1.000000
vn -0.000002 0.000000 -1.000000
vn 0.000000 0.000000 -1.000000
vn -0.000003 0.000000 -1.000000
vn -0.000006 0.000000 -1.000000
vn -0.000006 0.000000 -1.000000
vn 0.000000 0.000000 -1.000000
vn 0.000000 0.000000 -1.000000
vn 0.000000 0.000000 -1.000000
vn 0.000000 0.000000 -1.000000
vn 0.000000 0.000000 -1.000000
vn 0.000002 0.000000 -1.000000
vn 0.000002 0.000000 -1.000000
vn 0.000000 0.000000 -1.000000
vn 0.000006 0.000000 -1.000000
vn 0.000006 0.000000 -1.000000
vn 0.000000 0.000000 -1.000000
vn 0.000000 0.000000 -1.000000
vn 0.000000 0.000000 -1.000000
vn 0.000000 0.000000 -1.000000
vn 0.000000 0.000000 -1.000000
s 1
g pCube2
usemtl initialShadingGroup
f 22/32/1 23/33/2 16/24/3 3/3/4
s 2
f 3/3/5 16/24/6 13/20/7 5/5/8
s 3
f 5/5/9 13/20/10 30/41/11 21/31/12
s 4
f 7/7/13 14/21/14 15/23/15 1/9/16
s 5
f 26/36/17 27/38/18 6/12/19 4/4/20
s off
f 21/30/21 22/32/22 3/3/23 5/14/24
s 3
f 9/15/25 17/25/26 28/39/27 29/40/28
s 4
f 11/18/29 10/16/30 18/26/31 19/28/32
s 1
f 12/19/33 24/34/34 25/35/35 20/29/36
s 2
f 9/15/37 12/19/38 20/29/39 17/25/40
s 3
f 13/20/10 9/15/25 29/40/28 30/41/11
s 4
f 15/23/15 14/21/14 10/16/30 11/18/29
s 1
f 16/24/3 23/33/2 24/34/34 12/19/33
s 2
f 13/20/7 16/24/6 12/19/38 9/15/37
s 3
f 17/25/26 31/42/41 32/43/42 28/39/27
s 4
f 19/28/32 18/26/31 33/44/43 34/46/44
s 1
f 20/29/36 25/35/35 35/47/45 36/48/46
s 2
f 17/25/40 20/29/39 36/48/47 31/42/48
s off
f 7/13/49 1/1/50 22/32/51 21/30/52
s 1
f 1/1/53 15/22/54 23/33/2 22/32/1
f 24/34/34 23/33/2 15/22/54 11/17/55
f 25/35/35 24/34/34 11/17/55 19/27/56
f 35/47/45 25/35/35 19/27/56 34/45/57
s 5
f 2/2/58 8/11/59 27/38/18 26/36/17
s 3
f 28/39/27 32/43/42 33/44/60 18/26/61
f 29/40/28 28/39/27 18/26/61 10/16/62
f 30/41/11 29/40/28 10/16/62 14/21/63
f 21/31/12 30/41/11 14/21/63 7/7/64
f 31/42/41 37/49/65 38/50/66 32/43/42
f 33/44/60 32/43/42 38/50/66 39/51/67
s 4
f 34/46/44 33/44/43 39/51/68 40/53/69
s 1
f 41/54/70 35/47/45 34/45/57 40/52/71
f 36/48/46 35/47/45 41/54/70 42/55/72
s 2
f 31/42/48 36/48/47 42/55/73 37/49/74
s 3
f 44/57/75 49/63/76 50/64/77 43/56/78
f 48/62/79 43/56/78 50/64/77 51/65/80
s 4
f 47/61/81 48/62/82 51/65/83 52/67/84
s 1
f 53/68/85 46/59/86 47/60/87 52/66/88
f 45/58/89 46/59/86 53/68/85 54/69/90
s 2
f 44/57/91 45/58/92 54/69/93 49/63/94
s 3
f 37/49/65 44/57/75 43/56/78 38/50/66
s 2
f 37/49/74 42/55/73 45/58/92 44/57/91
s 1
f 42/55/72 41/54/70 46/59/86 45/58/89
f 47/60/87 46/59/86 41/54/70 40/52/71
s 4
f 40/53/69 39/51/68 48/62/82 47/61/81
s 3
f 39/51/67 38/50/66 43/56/78 48/62/79
f 49/63/76 6/6/95 27/37/96 50/64/77
f 51/65/80 50/64/77 27/37/96 8/8/97
s 4
f 52/67/84 51/65/83 8/8/98 2/10/99
s 1
f 26/36/100 53/68/85 52/66/88 2/2/101
f 54/69/90 53/68/85 26/36/100 4/4/102
s 2
f 49/63/94 54/69/93 4/4/103 6/6/104
s 9
f 55/70/105 56/71/106 76/72/107 75/73/108
f 56/71/106 57/74/109 77/75/110 76/72/107
f 57/74/109 58/76/111 78/77/112 77/75/110
f 58/76/111 59/78/113 79/79/114 78/77/112
f 59/78/113 60/80/115 80/81/116 79/79/114
f 60/80/115 61/82/117 81/83/118 80/81/116
f 61/82/117 62/84/119 82/85/120 81/83/118
f 62/84/119 63/86/121 83/87/122 82/85/120
f 63/86/121 64/88/123 84/89/124 83/87/122
f 64/88/123 65/90/125 85/91/126 84/89/124
f 65/90/125 66/92/127 86/93/128 85/91/126
f 66/92/127 67/94/129 87/95/130 86/93/128
f 67/94/129 68/96/131 88/97/132 87/95/130
f 68/96/131 69/98/133 89/99/134 88/97/132
f 69/98/133 70/100/135 90/101/136 89/99/134
f 70/100/135 71/102/137 91/103/138 90/101/136
f 71/102/137 72/104/139 92/105/140 91/103/138
f 72/104/139 73/106/141 93/107/142 92/105/140
f 73/106/141 74/108/143 94/109/144 93/107/142
f 74/108/143 55/110/105 75/111/108 94/109/144
s 10
f 56/112/145 55/113/146 95/114/147
f 57/115/148 56/112/145 95/114/147
f 58/116/149 57/115/148 95/114/147
f 59/117/150 58/116/149 95/114/147
f 60/118/151 59/117/150 95/114/147
f 61/119/152 60/118/151 95/114/147
f 62/120/153 61/119/152 95/114/147
f 63/121/154 62/120/153 95/114/147
f 64/122/155 63/121/154 95/114/147
f 65/123/156 64/122/155 95/114/147
f 66/124/157 65/123/156 95/114/147
f 67/125/158 66/124/157 95/114/147
f 68/126/159 67/125/158 95/114/147
f 69/127/160 68/126/159 95/114/147
f 70/128/161 69/127/160 95/114/147
f 71/129/162 70/128/161 95/114/147
f 72/130/163 71/129/162 95/114/147
f 73/131/164 72/130/163 95/114/147
f 74/132/165 73/131/164 95/114/147
f 55/113/146 74/132/165 95/114/147
s 11
f 75/133/166 76/134/167 96/135/168
f 76/134/167 77/136/169 96/135/168
f 77/136/169 78/137/170 96/135/168
f 78/137/170 79/138/171 96/135/168
f 79/138/171 80/139/172 96/135/168
f 80/139/172 81/140/173 96/135/168
f 81/140/173 82/141/174 96/135/168
f 82/141/174 83/142/175 96/135/168
f 83/142/175 84/143/176 96/135/168
f 84/143/176 85/144/177 96/135/168
f 85/144/177 86/145/178 96/135/168
f 86/145/178 87/146/179 96/135/168
f 87/146/179 88/147/180 96/135/168
f 88/147/180 89/148/181 96/135/168
f 89/148/181 90/149/182 96/135/168
f 90/149/182 91/150/183 96/135/168
f 91/150/183 92/151/184 96/135/168
f 92/151/184 93/152/185 96/135/168
f 93/152/185 94/153/186 96/135/168
f 94/153/186 75/133/166 96/135/168
